<?xml version="1.0" encoding="utf-8"?>
<svg viewBox="0 0 36 36" xmlns="http://www.w3.org/2000/svg">
  <g transform="matrix(0.021114, 0, 0, -0.021114, -33.331169, 79.218948)" fill="#000000" stroke="none" id="g10">
    <path d="m 2311,3719 c -237,-46 -446,-215 -539,-436 -52,-122 -68,-319 -37,-450 58,-248 262,-462 502,-529 60,-17 61,-17 65,-58 13,-109 77,-168 188,-174 93,-6 140,17 214,101 67,75 95,90 163,85 43,-3 48,-1 51,19 4,27 -28,43 -84,43 -56,0 -96,-23 -159,-93 -33,-36 -73,-73 -90,-81 -36,-19 -120,-21 -155,-3 -32,16 -70,73 -70,106 v 27 l 94,1 c 189,2 356,73 491,208 87,87 135,160 170,258 38,107 38,114 -4,40 -72,-127 -188,-234 -310,-285 l -49,-20 -41,41 -41,41 -6,203 -7,203 50,50 c 64,64 88,129 80,223 -4,53 -34,151 -52,169 -10,11 -68,-34 -82,-63 -15,-31 -21,-35 -54,-35 -21,0 -50,-4 -64,-10 -23,-9 -29,-6 -52,20 -35,42 -83,67 -94,48 -20,-30 -31,-97 -27,-158 5,-71 30,-129 78,-184 40,-45 38,-68 -7,-98 -127,-84 -197,-225 -175,-350 6,-29 9,-55 7,-56 -2,-2 -29,13 -59,33 -121,80 -225,227 -261,370 -19,76 -19,234 0,310 56,221 239,404 460,460 32,8 82,15 110,16 37,0 45,3 30,9 -26,11 -177,10 -234,-1 z" id="path2"/>
    <path d="m 2804,3633 c -19,-15 -20,-18 -5,-35 19,-22 25,-22 45,-2 14,14 20,13 60,-5 50,-21 124,-69 172,-110 16,-14 8,-5 -20,21 -27,27 -84,65 -125,85 -42,21 -80,44 -84,51 -11,16 -19,15 -43,-5 z" id="path4"/>
    <path d="m 2605,3614 c -11,-13 -27,-25 -35,-28 -11,-3 -10,-4 3,-5 10,0 16,-4 14,-8 -3,-5 1,-14 9,-21 10,-9 14,-9 14,-1 0,6 7,8 16,5 8,-3 12,-2 9,3 -3,5 -1,12 5,16 14,8 122,-67 200,-139 l 65,-60 -50,53 c -51,54 -186,161 -204,161 -5,0 -13,11 -18,24 l -8,23 z" id="path6"/>
    <path d="m 2900,3366 c 0,-2 8,-10 18,-17 15,-13 16,-12 3,4 -13,16 -21,21 -21,13 z" id="path8"/>
  </g>
</svg>