<svg xmlns="http://www.w3.org/2000/svg" viewBox="0 0 47.5 47.5" id="heart"><defs><clipPath id="a"><path d="M0 38h38V0H0v38Z"></path></clipPath></defs><g clip-path="url(#a)" transform="matrix(1.25 0 0 -1.25 0 47.5)"><path d="M14.589 10.479a1.5 1.5 0 0 0 .035 1.599l4.395 6.645-5.995 5.139a1.499 1.499 0 0 0-.31 1.91l4.304 7.173a9.778 9.778 0 0 1-6.035 2.09c-5.45 0-9.868-4.418-9.868-9.868 0-.772.098-1.52.266-2.241C2.752 14.414 12.216 5.432 19 2.966c.026.009.052.023.077.033l-4.488 7.48Z"></path><path d="M27.018 35.034c-2.765 0-5.248-1.151-7.037-2.983l-4.043-6.737 6.039-5.176a1.499 1.499 0 0 0 .274-1.965l-4.603-6.962 4.161-6.935c6.338 3.529 13.621 11.263 14.809 18.649.17.721.267 1.469.267 2.241 0 5.451-4.418 9.868-9.867 9.868"></path></g></svg>